<?xml version="1.0" encoding="utf-8"?>
<?xml-stylesheet type="text/xsl" href="rss1.xsl"?>
<rss version="2.0" xmlns:atom="http://www.w3.org/2005/Atom" xmlns:content="http://purl.org/rss/1.0/modules/content/" xmlns:dc="http://purl.org/dc/elements/1.1/" xmlns:media="http://search.yahoo.com/mrss/">
<channel>
 <title>Getty</title>
 <link>http://www.gettyimg.com/</link>
 <atom:link href="http://www.gettyimg.com/" rel="self" type="application/rss+xml" />

 
                <item>
                <title><![CDATA[【Albums (lossless)】AIFF - Grachi - Vol. 1, Vol.2 + Isabella Castillo Debut [CD Rip]]]></title>
                <link><![CDATA[https://sharemania.us/threads/grachi-vol-1-vol-2-isabella-castillo-debut-cd-rip.246125/]]></link>
                <description><![CDATA[<article>
<blockquote class="messageText SelectQuoteContainer ugc baseHtml">
<div style="text-align: center"><span style="font-family: 'Arial'"><b><span style="font-size: 26px">Grachi: La Vida es Maravillosamente Mágica</span></b><br>
<b><span style="font-size: 26px">
<div class="bbCodeBlock bbCodeQuote">
<aside>
<blockquote class="quoteContainer"><div class="quote">Requested by <a href="https://sharemania.us/members/themagickingdom.165434/" class="internalLink">TheMagicKingdom</a></div><div class="quoteExpand">Click to expand...</div></blockquote>
</aside>
</div></span></b></span><br>
<b><span style="font-family: 'Arial'"><span style="font-size: 26px">Volume One</span></span></b><br>
<img src="https://dojiw2m9tvv09.cloudfront.net/36300/product/17169.jpg" class="bbCodeImage LbImage" alt="[​IMG]" data-url="https://dojiw2m9tvv09.cloudfront.net/36300/product/17169.jpg" style=""> <br>
<b><span style="text-decoration: underline"><br>
TRACKLIST</span></b><br>
1. Grachi - Isabella "Grachi" Castillo<br>
2. Goma de Mascar - Paty Cantú<br>
3. ¿Qué Sabes? - Isabella "Grachi" Castillo<br>
4. Tú Eres Para Mí - Isabella "Grachi" Castillo y Andrés "Daniel" Mercado<br>
5. Tú y Yo - Elenco de Grachi<br>
6. Somos Aire - Motel<br>
7. Lobo - Koko<br>
8. Hechizo de Amor - Adammo<br>
9. Las Palabras - Manuela Mejía<br>
10. Llega el Otoño - Abril Cantillo<br>
11. Enamorada - Miranda!<br>
12. Algún Día - Adammo<br>
13. Acabo de Llegar - Denisse<br>
14. Goma de Mascar (Hoodie's Club Mix) - Paty Cantú<br>
15. Puedo Volar - Agustin Almeyda (Bonus Track)<br>
<br>
<div class="ToggleTriggerAnchor bbCodeSpoilerContainer">
<button type="button" class="button bbCodeSpoilerButton ToggleTrigger Tooltip JsOnly" data-target="> .SpoilerTarget"><span>Spoiler: <span class="SpoilerTitle">Mediainfo</span></span></button>
<div class="SpoilerTarget bbCodeSpoilerText">General<br>
Complete name : 01 Grachi.aif<br>
Format : AIFF<br>
Format/Info : Apple/SGI<br>
File size : 30.2 MiB<br>
Duration : 2 min 54 s<br>
Overall bit rate mode : Constant<br>
Overall bit rate : 1 452 kb/s<br>
Album : Grachi<br>
Part/Position : 1<br>
Part/Total : 1<br>
Track name : Grachi<br>
Track name/Position : 1<br>
Track name/Total : 15<br>
Performer : Isabella “Grachi” Castillo<br>
Genre : Soundtrack<br>
Recorded date : 2011<br>
Cover : Yes<br>
Cover MIME : image/png<br>
iTunPGAP : 0<br>
<br>
Audio<br>
Format : PCM<br>
Format settings : Big<br>
Duration : 2 min 54 s<br>
Bit rate mode : Constant<br>
Bit rate : 1 411.2 kb/s<br>
Channel(s) : 2 channels<br>
Sampling rate : 44.1 kHz<br>
Bit depth : 16 bits<br>
Stream size : 29.4 MiB (97%)</div>
</div><br>
<div class="bbCodeBlock bbCodeVfcHH HiddenContent">
<div class="attribution type">Hidden Content:</div>
<blockquote>You must either reply or click 'Like' to see the hidden information contained here.</blockquote>
</div><b><span style="font-family: 'Arial'"><span style="font-size: 26px">Volume Two</span></span></b><br>
<img src="https://dojiw2m9tvv09.cloudfront.net/36300/product/r-12344835-1533369716-90417096.jpg" class="bbCodeImage LbImage" alt="[​IMG]" data-url="https://dojiw2m9tvv09.cloudfront.net/36300/product/r-12344835-1533369716-90417096.jpg" style=""> <br>
<b><span style="text-decoration: underline"><br>
TRACKLIST</span></b><br>
1. Grachi (Remix) - Isabella Castillo<br>
2. Magia - Isabella Castillo, Kimberly Dos Ramos, María Gabriela de Faria<br>
3. Amor de Película - Isabella Castillo, Andrés Mercado<br>
4. La Estrella Soy Yo - María Gabriela de Faria<br>
5. Químika Perfecta - Willy Martin, Ana Carolina Grajales<br>
6. Tiburones - Rafael de la Fuente, Lance Dos Ramos, Guilherme Apollonio, Carlos Arrechea, Yony Hernández<br>
7. Te Busco - Rafael de la Fuente, Kimberly Dos Ramos<br>
8. Siempre Siempre Siempre - María Gabriela de Faria<br>
9. Lágrimas - Isabella Castillo<br>
10. Somos Las Panteras - Kimberly Dos Ramos, María del Pilar Pérez, Sharlene Taule<br>
11. M.A.P.S. - Isabella Castillo, Sol Rodríguez<br>
12. Lágrimas (Dance Remix) - Isabella Castillo<br>
13. Soñar Forever - Cristian Campocasso<br>
14. Tú Eres Para Mí (Rock Remix) - Isabella Castillo, Andrés Mercado<br>
<br>
<br>
<div class="ToggleTriggerAnchor bbCodeSpoilerContainer">
<button type="button" class="button bbCodeSpoilerButton ToggleTrigger Tooltip JsOnly" data-target="> .SpoilerTarget"><span>Spoiler: <span class="SpoilerTitle">Mediainfo</span></span></button>
<div class="SpoilerTarget bbCodeSpoilerText">UPLOADING...</div>
</div><br>
<div class="bbCodeBlock bbCodeVfcHH HiddenContent">
<div class="attribution type">Hidden Content:</div>
<blockquote>You must either reply or click 'Like' to see the hidden information contained here.</blockquote>
</div><span style="font-family: 'Arial'"><span style="font-size: 26px"><b>Soñar No Cuesta Nada</b></span></span><br>
<br>
<img src="https://dojiw2m9tvv09.cloudfront.net/36300/product/r-11517483-1517749970-20256222.jpg" class="bbCodeImage LbImage" alt="[​IMG]" data-url="https://dojiw2m9tvv09.cloudfront.net/36300/product/r-11517483-1517749970-20256222.jpg" style=""> <br>
<b><span style="text-decoration: underline">TRACKLIST</span></b><br>
1. Soñar No Cuesta Nada<br>
2. No Me Importa<br>
3. Ven a Mi Casa<br>
4. Alma en Dos<br>
5. Me Enamoré<br>
6. Te Necesito Badly<br>
7. Pertenezco a Ti<br>
8. Lágrimas<br>
9. El Momento<br>
10. Esta Canción<br>
11. Corazón de Oro<br>
<br>
<div class="ToggleTriggerAnchor bbCodeSpoilerContainer">
<button type="button" class="button bbCodeSpoilerButton ToggleTrigger Tooltip JsOnly" data-target="> .SpoilerTarget"><span>Spoiler: <span class="SpoilerTitle">Mediainfo</span></span></button>
<div class="SpoilerTarget bbCodeSpoilerText">General<br>
Complete name : 01 Soñar No Cuesta Nada.aif<br>
Format : AIFF<br>
Format/Info : Apple/SGI<br>
File size : 29.1 MiB<br>
Duration : 2 min 52 s<br>
Overall bit rate mode : Constant<br>
Overall bit rate : 1 411 kb/s<br>
Album : Soñar No Cuesta Nada<br>
Part/Position : 1<br>
Part/Total : 1<br>
Track name : Soñar No Cuesta Nada<br>
Track name/Position : 1<br>
Track name/Total : 11<br>
Performer : Isabella Castillo<br>
Genre : Latin<br>
Recorded date : 2013<br>
iTunPGAP : 0<br>
<br>
Audio<br>
Format : PCM<br>
Format settings : Big<br>
Duration : 2 min 52 s<br>
Bit rate mode : Constant<br>
Bit rate : 1 411.2 kb/s<br>
Channel(s) : 2 channels<br>
Sampling rate : 44.1 kHz<br>
Bit depth : 16 bits<br>
Stream size : 29.1 MiB (100%)</div>
</div><br>
<div class="bbCodeBlock bbCodeVfcHH HiddenContent">
<div class="attribution type">Hidden Content:</div>
<blockquote>You must either reply or click 'Like' to see the hidden information contained here.</blockquote>
</div></div>
<div class="messageTextEndMarker">&nbsp;</div>
</blockquote>
</article>]]></description>
                <author><![CDATA[crisxcx]]></author>
                </item>

                
                <item>
                <title><![CDATA[【Albums (lossless)】FLAC - R.E.M - Reckoning (1984) [CD].]]></title>
                <link><![CDATA[https://sharemania.us/threads/r-e-m-reckoning-1984-cd.246126/]]></link>
                <description><![CDATA[<article>
<blockquote class="messageText SelectQuoteContainer ugc baseHtml">
GRACIAS
<div class="messageTextEndMarker">&nbsp;</div>
</blockquote>
</article>]]></description>
                <author><![CDATA[RadifGrande]]></author>
                </item>

                </channel></rss>